<svg width="82" height="170" viewBox="0 0 82 170" fill="none" xmlns="http://www.w3.org/2000/svg">
<g clip-path="url(#clip0_3_133)">
<path d="M59.2825 66.9414C57.9625 65.5702 55.5113 64.9102 51.8038 64.9102C43.4488 64.9102 42.6613 68.0339 42.635 73.2402H60.9588C60.9588 70.6502 60.6038 68.3264 59.2825 66.9414ZM51.8038 87.8177H51.8C50.3228 87.82 48.87 87.4407 47.5825 86.7164L47.6263 86.7389V86.7589C47.6263 87.2639 47.47 87.7327 47.2025 88.1177L47.2075 88.1102V88.8214L51.8038 93.0877L56.375 88.8214V88.1102C56.1085 87.7254 55.9663 87.2682 55.9675 86.8002L55.9688 86.7352V86.7389C54.6935 87.4403 53.2629 87.8112 51.8075 87.8177H51.8038Z" fill="#B18930"/>
<path d="M42.5088 77.3288C42.578 77.3524 42.6383 77.3967 42.6814 77.4557C42.7246 77.5148 42.7485 77.5857 42.75 77.6588C42.8953 79.1315 43.3372 80.5596 44.0488 81.8571C44.7605 83.1546 45.7274 84.2947 46.8913 85.2088L46.915 85.2263C47.09 85.3725 47.285 85.5075 47.4925 85.6225L47.5113 85.6325C48.725 86.48 50.23 86.9863 51.8538 86.9863C53.4775 86.9863 54.9838 86.48 56.2213 85.6163L56.1963 85.6325C56.4225 85.5113 56.6188 85.3763 56.7975 85.2225L56.7938 85.2263C59.0778 83.3342 60.5412 80.6318 60.8775 77.685L60.8825 77.6325C60.8825 77.4825 60.9838 77.355 61.1213 77.315H61.2C61.4031 77.2334 61.588 77.1123 61.7439 76.9586C61.8998 76.805 62.0237 76.622 62.1083 76.4201C62.193 76.2183 62.2367 76.0016 62.237 75.7827C62.2373 75.5639 62.1941 75.3471 62.11 75.145L62.1138 75.1563C62.0445 74.9524 61.9325 74.7656 61.7853 74.6084C61.6381 74.4513 61.459 74.3274 61.26 74.245L61.25 74.2413C61.0411 74.1567 60.8179 74.1134 60.5925 74.1138H43.0538C42.825 74.1138 42.6063 74.16 42.4075 74.245L42.4188 74.2413H42.3675C41.9763 74.4475 41.6738 74.7788 41.5088 75.1813L41.5038 75.1938C41.3572 75.6079 41.3789 76.063 41.5643 76.4613C41.7496 76.8596 42.0838 77.1692 42.495 77.3238L42.5063 77.3275L42.5088 77.3288ZM51.0038 82.815C51.1175 82.815 54.09 83.1575 55.5875 80.5288C55.646 80.4319 55.7401 80.3617 55.8498 80.3335C55.9594 80.3052 56.0757 80.321 56.1738 80.3775L56.1713 80.3763H56.1838C56.2796 80.4326 56.3492 80.5245 56.3775 80.632C56.4059 80.7395 56.3906 80.8538 56.335 80.95L56.3363 80.9475C54.9138 83.3988 52.4638 83.7025 51.4225 83.7025H51.3963C51.2263 83.7025 51.06 83.6838 50.9 83.6488L50.915 83.6513C50.8356 83.6239 50.7651 83.5753 50.7114 83.5107C50.6576 83.4462 50.6225 83.3681 50.61 83.285V83.2825L50.6088 83.2538C50.6088 83.0263 50.78 82.8375 51.0013 82.8125H51.0038V82.815ZM58.0763 98.2813C57.7475 98.2576 57.4175 98.258 57.0888 98.2825L57.11 98.2813C56.4391 98.4112 55.8338 98.769 55.3964 99.2941C54.959 99.8191 54.7166 100.479 54.71 101.163V104.91H60.5138V101.164C60.5115 100.476 60.2681 99.8114 59.8258 99.2851C59.3835 98.7588 58.7706 98.4044 58.0938 98.2838L58.0763 98.2813ZM67.2063 104.073V96.1613C67.2063 92.6563 63.79 91.4888 60.755 90.4475C60.0829 90.2572 59.4239 90.023 58.7825 89.7463L58.8875 89.7863V95.92C60.0683 96.1992 61.1205 96.8685 61.874 97.8195C62.6275 98.7706 63.0383 99.9479 63.04 101.161V104.911H66.38C66.5988 104.911 66.8087 104.824 66.9634 104.67C67.1181 104.515 67.205 104.305 67.205 104.086L67.2063 104.073Z" fill="#B18930"/>
<path d="M57.6325 96.5926C56.4201 96.5926 55.2574 97.0742 54.4001 97.9314C53.5429 98.7887 53.0612 99.9514 53.0612 101.164V104.91H53.8862V101.164V101.114C53.8862 100.236 54.1963 99.387 54.7617 98.7159C55.3271 98.0448 56.1115 97.5952 56.9762 97.4463L56.9987 97.4426C57.4214 97.3628 57.8553 97.3641 58.2775 97.4463L58.2562 97.4426C59.1278 97.6031 59.9163 98.0621 60.4863 98.7407C61.0563 99.4192 61.3723 100.275 61.38 101.161V104.909H62.205V101.163C62.205 99.9502 61.7234 98.7875 60.8661 97.9302C60.0088 97.0729 58.8461 96.5913 57.6337 96.5913L57.6325 96.5926Z" fill="#B18930"/>
<path d="M56.375 95.9202V89.9902L52.1213 94.0027C52.0892 94.039 52.0497 94.068 52.0056 94.0879C51.9614 94.1077 51.9134 94.1178 51.865 94.1177L51.8413 94.1164H51.8325C51.7269 94.1166 51.6254 94.0753 51.55 94.0014L47.2575 89.9889V95.7664C47.9307 96.0282 48.5093 96.4871 48.9177 97.083C49.326 97.6788 49.5451 98.384 49.5463 99.1064C49.5462 99.7589 49.3678 100.399 49.0305 100.957C48.6932 101.516 48.2097 101.972 47.6322 102.275C47.0548 102.579 46.4053 102.719 45.754 102.681C45.1027 102.642 44.4742 102.427 43.9365 102.057C43.3988 101.688 42.9723 101.178 42.703 100.584C42.4337 99.9897 42.3319 99.3331 42.4086 98.6851C42.4852 98.0372 42.7374 97.4225 43.138 96.9074C43.5385 96.3924 44.0721 95.9965 44.6813 95.7627L44.7063 95.7539V89.7852C44.11 89.9889 43.5 90.2552 42.8275 90.4452C39.805 91.4864 36.3763 92.6552 36.3763 96.1589V104.083C36.3763 104.534 36.7388 104.901 37.1888 104.908H52.2113V101.161C52.2161 99.9531 52.625 98.7812 53.373 97.8323C54.121 96.8834 55.165 96.212 56.3388 95.9252L56.3762 95.9177L56.375 95.9202Z" fill="#B18930"/>
<path d="M46.3813 95.5512V88.9474C46.1413 89.1099 45.8663 89.2624 45.5775 89.3912L45.5438 89.4049V95.5512L45.9625 95.5262L46.3813 95.5512ZM57.2125 95.7412C57.3388 95.7174 57.4838 95.7037 57.6313 95.7037L58.05 95.7412V89.4049C57.7486 89.2864 57.4634 89.1302 57.2013 88.9399L57.2125 88.9474V95.7412ZM45.9625 96.0724C45.3594 96.0722 44.7698 96.2508 44.2682 96.5857C43.7667 96.9206 43.3757 97.3968 43.1448 97.9539C42.9139 98.511 42.8534 99.1241 42.971 99.7157C43.0886 100.307 43.379 100.851 43.8055 101.277C44.2319 101.703 44.7753 101.994 45.3668 102.111C45.9583 102.229 46.5714 102.169 47.1285 101.938C47.6857 101.707 48.1618 101.316 48.4967 100.814C48.8316 100.313 49.0103 99.723 49.01 99.1199V99.1062C49.0067 98.3001 48.6842 97.5294 48.113 96.9606C47.5418 96.3918 46.7686 96.0724 45.9625 96.0724ZM45.9625 100.872C45.6134 100.872 45.2722 100.769 44.9819 100.575C44.6917 100.381 44.4654 100.105 44.3319 99.7829C44.1983 99.4604 44.1633 99.1055 44.2314 98.7631C44.2995 98.4207 44.4676 98.1062 44.7145 97.8594C44.9613 97.6126 45.2758 97.4445 45.6182 97.3764C45.9605 97.3083 46.3154 97.3432 46.6379 97.4768C46.9605 97.6104 47.2361 97.8366 47.4301 98.1269C47.624 98.4171 47.7275 98.7584 47.7275 99.1074C47.7275 100.082 46.9375 100.872 45.9625 100.872Z" fill="#B18930"/>
<path d="M46.8762 99.1065C46.8762 99.3487 46.78 99.5809 46.6088 99.7522C46.4375 99.9234 46.2053 100.02 45.9631 100.02C45.7209 100.02 45.4887 99.9234 45.3174 99.7522C45.1462 99.5809 45.05 99.3487 45.05 99.1065C45.05 98.8643 45.1462 98.6321 45.3174 98.4608C45.4887 98.2896 45.7209 98.1934 45.9631 98.1934C46.2053 98.1934 46.4375 98.2896 46.6088 98.4608C46.78 98.6321 46.8762 98.8643 46.8762 99.1065Z" fill="#B18930"/>
</g>
<defs>
<clipPath id="clip0_3_133">
<rect width="40" height="40" fill="white" transform="translate(32 64.9102)"/>
</clipPath>
</defs>
</svg>
