<svg width="82" height="105" viewBox="0 0 82 105" fill="none" xmlns="http://www.w3.org/2000/svg">
<path d="M0 10C0 4.47716 4.47715 0 10 0H82V104.19H10C4.47715 104.19 0 99.7129 0 94.19V10Z" fill="#E2C96E" fill-opacity="0.9"/>
<g clip-path="url(#clip0_3_184)">
<path d="M35.362 43.8611C40.573 43.7391 47.908 39.7871 51.474 37.3801L51.596 62.3601C47.98 59.9221 40.543 55.9091 35.362 55.7771V43.8611ZM25 49.8251C25.0053 48.25 25.6325 46.7407 26.7452 45.6257C27.8578 44.5108 29.3659 43.8805 30.941 43.8721H34.092V55.7781H30.943C29.367 55.7726 27.8572 55.1434 26.7436 54.0281C25.63 52.9129 25.0032 51.4021 25 49.8261V49.8251ZM38.135 66.8401C38.2122 67.0085 38.2252 67.1993 38.1716 67.3766C38.1181 67.554 38.0015 67.7056 37.844 67.8031L37.841 67.8051L37.76 67.8351C37.6639 67.874 37.5624 67.898 37.459 67.9061H34.59H34.589C34.5747 67.9061 34.5609 67.9011 34.5499 67.892C34.539 67.8828 34.5316 67.8701 34.529 67.8561L31.451 57.0371H33.676L38.135 66.8401ZM53.526 62.9501C53.5242 63.0416 53.4957 63.1306 53.444 63.2061L53.445 63.2041C53.3786 63.2883 53.2824 63.3437 53.1762 63.3588C53.0701 63.3738 52.9622 63.3475 52.875 63.2851L52.876 63.2861L52.551 62.9711L52.419 36.7921L52.876 36.3761C52.9373 36.3315 53.0095 36.3043 53.085 36.2972C53.1605 36.2902 53.2365 36.3036 53.305 36.3361L53.302 36.3351C53.3693 36.3689 53.426 36.4207 53.4655 36.4848C53.5051 36.5489 53.526 36.6228 53.526 36.6981V36.7011V62.9501ZM54.796 52.8521V46.7971C56.087 47.2211 57.003 48.4161 57.003 49.8241C57.003 51.2321 56.087 52.4271 54.818 52.8451L54.796 52.8521Z" fill="white"/>
</g>
<defs>
<clipPath id="clip0_3_184">
<rect width="32" height="32" fill="white" transform="translate(25 36.0901)"/>
</clipPath>
</defs>
</svg>
