<svg width="82" height="105" viewBox="0 0 82 105" fill="none" xmlns="http://www.w3.org/2000/svg">
<path d="M0 10.1799C0 4.65709 4.47715 0.179932 10 0.179932H82V104.37H10C4.47715 104.37 0 99.8928 0 94.3699V10.1799Z" fill="#E2C96E" fill-opacity="0.9"/>
<g clip-path="url(#clip0_3_162)">
<path d="M35.291 39.124V44.904H36.734V40.536H45.267V44.904H46.71V39.124H35.291ZM57 65.415H25V54.555H37.576V55.124C37.576 55.752 38.085 56.262 38.714 56.262H43.285C43.913 56.262 44.423 55.753 44.423 55.124V54.555H56.999L57 65.415Z" fill="white"/>
<path d="M38.714 52.8391H43.285V55.1271H38.714V52.8391Z" fill="white"/>
<path d="M57 53.408H44.424V52.839C44.424 52.211 43.915 51.701 43.286 51.701H38.715C38.087 51.701 37.577 52.21 37.577 52.839V53.408H25.001V44.834H57.001L57 53.408Z" fill="white"/>
</g>
<defs>
<clipPath id="clip0_3_162">
<rect width="32" height="32" fill="white" transform="translate(25 36.28)"/>
</clipPath>
</defs>
</svg>
