<svg width="82" height="105" viewBox="0 0 82 105" fill="none" xmlns="http://www.w3.org/2000/svg">
<path d="M0 10C0 4.47716 4.47715 0 10 0H82V104.19H10C4.47715 104.19 0 99.7129 0 94.19V10Z" fill="#E2C96E" fill-opacity="0.9"/>
<g clip-path="url(#clip0_3_196)">
<path d="M55.933 65.9571H27.133V37.1571C27.133 36.8741 27.0206 36.6027 26.8205 36.4026C26.6204 36.2025 26.349 36.0901 26.066 36.0901C25.783 36.0901 25.5116 36.2025 25.3115 36.4026C25.1114 36.6027 24.999 36.8741 24.999 37.1571V67.0241C24.999 67.6131 25.476 68.0911 26.066 68.0911H55.933C56.216 68.0911 56.4874 67.9787 56.6875 67.7786C56.8876 67.5785 57 67.3071 57 67.0241C57 66.7411 56.8876 66.4697 56.6875 66.2696C56.4874 66.0695 56.216 65.9571 55.933 65.9571Z" fill="white"/>
<path d="M32.467 55.2901C32.751 55.2901 33.026 55.1781 33.229 54.9851L48.467 39.7271V41.4241C48.467 41.7071 48.5794 41.9785 48.7795 42.1786C48.9796 42.3787 49.251 42.4911 49.534 42.4911C49.817 42.4911 50.0884 42.3787 50.2885 42.1786C50.4886 41.9785 50.601 41.7071 50.601 41.4241V37.1571C50.601 36.5681 50.124 36.0901 49.534 36.0901H45.267C44.984 36.0901 44.7126 36.2025 44.5125 36.4026C44.3124 36.6027 44.2 36.8741 44.2 37.1571C44.2 37.4401 44.3124 37.7115 44.5125 37.9116C44.7126 38.1117 44.984 38.2241 45.267 38.2241H46.964L31.706 53.4621C31.5066 53.6607 31.3937 53.9301 31.3918 54.2115C31.39 54.493 31.4993 54.7638 31.696 54.9651L31.706 54.9751C31.909 55.1781 32.182 55.2901 32.467 55.2901Z" fill="white"/>
<path d="M46.333 45.69V63.823H52.733V45.69C52.733 45.101 52.256 44.623 51.666 44.623H47.399C46.81 44.623 46.333 45.1 46.333 45.69ZM38.867 53.157C38.278 53.157 37.8 53.634 37.8 54.224V63.824H44.2V54.224C44.2 53.635 43.723 53.157 43.133 53.157H38.867ZM35.667 58.49C35.667 57.901 35.19 57.423 34.6 57.423H30.333C29.744 57.423 29.266 57.9 29.266 58.49V63.823H35.666L35.667 58.49Z" fill="white"/>
</g>
<defs>
<clipPath id="clip0_3_196">
<rect width="32" height="32" fill="white" transform="translate(25 36.0901)"/>
</clipPath>
</defs>
</svg>
