<svg width="290" height="823" viewBox="0 0 290 823" fill="none" xmlns="http://www.w3.org/2000/svg">
<g clip-path="url(#clip0_3_35)">
<path opacity="0.05" d="M270 216.655C281.046 216.655 290 203.635 290 187.574C290 171.513 281.046 158.493 270 158.493C258.954 158.493 250 171.513 250 187.574C250 203.635 258.954 216.655 270 216.655Z" fill="#B18930"/>
<g opacity="0.05">
<path d="M91 823C103.703 823 114 808.027 114 789.557C114 771.086 103.703 756.113 91 756.113C78.2975 756.113 68 771.086 68 789.557C68 808.027 78.2975 823 91 823Z" stroke="#B18930" stroke-width="10"/>
<path d="M91 815.73C100.941 815.73 109 804.012 109 789.557C109 775.102 100.941 763.384 91 763.384C81.0589 763.384 73 775.102 73 789.557C73 804.012 81.0589 815.73 91 815.73Z" stroke="#B18930" stroke-width="10"/>
</g>
<g opacity="0.05">
<path d="M23.0003 296.628C18.6748 296.628 14.3269 296.384 9.99988 295.9V272.49C14.4871 273.07 18.9986 273.363 23.4998 273.363C33.7073 273.363 43.9088 271.867 53.8211 268.917C63.4873 266.041 72.997 261.749 82.0849 256.16C90.9993 250.679 99.6018 243.889 107.652 235.981C115.623 228.151 123.114 219.163 129.92 209.266C136.725 199.372 142.906 188.479 148.291 176.89C153.727 165.191 158.396 152.682 162.169 139.712C166.013 126.496 168.965 112.669 170.943 98.6151C172.971 84.1971 174 69.364 174 54.5266C174 41.0933 173.157 27.6633 171.491 14.5408H187.829C189.271 27.4616 190 40.6256 190 53.8003C190 70.2878 188.858 86.7582 186.607 102.754C184.414 118.335 181.142 133.664 176.88 148.315C172.696 162.7 167.516 176.576 161.485 189.558C155.506 202.425 148.643 214.519 141.087 225.505C133.528 236.497 125.211 246.476 116.365 255.166C107.436 263.937 97.8928 271.468 88.0017 277.551C77.9221 283.75 67.3799 288.508 56.6681 291.693C45.6681 294.968 34.3413 296.628 23.0003 296.628Z" fill="#B18930"/>
<path d="M23.0003 311.169C15.3288 311.169 7.59032 310.443 -0.00012207 309.013V255.976C7.71902 257.864 15.6251 258.822 23.4998 258.822C33.0353 258.822 42.5621 257.426 51.8156 254.671C60.836 251.988 69.7094 247.983 78.1892 242.768C86.51 237.652 94.5395 231.314 102.054 223.932C109.497 216.621 116.493 208.228 122.848 198.985C129.204 189.744 134.977 179.572 140.005 168.75C145.079 157.829 149.438 146.154 152.958 134.048C156.545 121.716 159.3 108.813 161.146 95.6995C163.039 82.2394 164 68.3869 164 54.5265C164 40.6675 163.039 26.8149 161.146 13.3536C160.519 8.89691 159.776 4.40417 158.938 0L196.127 8.8749e-05C196.232 0.716737 196.322 1.34823 196.404 1.93167C198.79 18.8858 200 36.337 200 53.8002C200 71.2648 198.79 88.716 196.404 105.669C194.079 122.19 190.609 138.444 186.09 153.979C181.655 169.228 176.164 183.937 169.771 197.698C163.436 211.332 156.164 224.147 148.158 235.787C140.15 247.433 131.336 258.007 121.962 267.215C112.498 276.511 102.383 284.495 91.8971 290.943C81.2092 297.516 70.0306 302.561 58.6718 305.939C47.0151 309.409 35.0134 311.169 23.0003 311.169Z" fill="#B18930"/>
</g>
</g>
<defs>
<clipPath id="clip0_3_35">
<rect width="290" height="823" fill="white"/>
</clipPath>
</defs>
</svg>
