<svg width="20" height="20" viewBox="0 0 20 20" fill="none" xmlns="http://www.w3.org/2000/svg">
<path d="M18.5903 4.12771C17.9169 4.42621 17.2025 4.62209 16.471 4.70881C17.241 4.24769 17.8174 3.52275 18.0932 2.66867C17.3679 3.09824 16.5748 3.40121 15.7478 3.5646C15.4028 3.19587 14.9856 2.90209 14.5222 2.70153C14.0587 2.50097 13.559 2.39792 13.054 2.39881C12.4978 2.39857 11.9488 2.52406 11.4479 2.76589C10.947 3.00771 10.5073 3.35962 10.1615 3.79531C9.81582 4.23101 9.57304 4.73921 9.45137 5.28193C9.32969 5.82465 9.33226 6.38786 9.45888 6.92945C7.99153 6.85589 6.55606 6.47459 5.24563 5.81028C3.93521 5.14598 2.77913 4.21353 1.85244 3.07346C1.52396 3.63629 1.35172 4.27662 1.3535 4.92829C1.35307 5.53583 1.50266 6.13408 1.78899 6.66992C2.07533 7.20575 2.48953 7.6626 2.99485 7.99989C2.4087 7.98043 1.83559 7.82174 1.32292 7.53693V7.58311C1.32333 8.43516 1.61823 9.26089 2.15767 9.92043C2.69711 10.58 3.44793 11.0328 4.28298 11.2022C3.96586 11.288 3.6388 11.3316 3.31028 11.3318C3.07221 11.3318 2.84133 11.3084 2.61524 11.2634C2.85083 11.9967 3.30977 12.638 3.92784 13.0975C4.5459 13.5571 5.29218 13.812 6.06225 13.8265C4.75469 14.8516 3.14033 15.4071 1.47884 15.4036C1.18079 15.4036 0.887545 15.3856 0.598495 15.3533C2.28526 16.4391 4.2493 17.0156 6.25535 17.0138C13.0444 17.0138 16.7553 11.3905 16.7553 6.51387L16.7427 6.03591C17.4682 5.51734 18.0936 4.87141 18.5885 4.12951L18.5903 4.12771Z" fill="white"/>
</svg>
