<svg width="118" height="105" viewBox="0 0 118 105" fill="none" xmlns="http://www.w3.org/2000/svg">
<g clip-path="url(#clip0_2_56)">
<path fill-rule="evenodd" clip-rule="evenodd" d="M112.642 8.56481C112.309 9.00484 111.681 9.091 111.241 8.75724C103.764 3.08576 93.8534 0.751403 84.2728 3.69925C79.7547 5.0894 75.2727 7.66659 71.1325 11.6701C72.1587 12.8594 73.1429 14.1596 74.079 15.5739C81.1532 26.2613 82.8078 35.2052 81.3633 41.9966C79.9183 48.7904 75.3938 53.2948 70.4217 55.0668C65.4727 56.8306 59.9433 55.9038 56.7618 51.6232C53.6026 47.3725 53.0418 40.1847 57.1087 30.0145C60.2162 22.2431 64.0741 16.1771 68.3762 11.6159C62.168 5.19737 54.5953 2.85485 46.9348 3.66486C37.4582 4.66689 27.7191 10.5128 20.2159 19.7664C5.55204 37.8514 -0.407659 68.7826 21.114 100.763L22.2152 94.3116C22.3081 93.7672 22.8247 93.4012 23.369 93.4941C23.9135 93.587 24.2795 94.1037 24.1865 94.6481L22.6723 103.52C22.5794 104.064 22.0628 104.43 21.5183 104.337L12.6471 102.823C12.1028 102.73 11.7368 102.213 11.8297 101.669C11.9226 101.125 12.4392 100.759 12.9836 100.852L19.5131 101.966C-2.56579 69.2294 3.42894 37.2944 18.6626 18.5067C26.414 8.94695 36.6005 2.74644 46.7245 1.67594C55.0085 0.800022 63.1653 3.37156 69.7821 10.1935C74.1143 6.01428 78.8462 3.27645 83.6846 1.78769C93.944 -1.36899 104.515 1.14526 112.45 7.16375C112.89 7.49751 112.976 8.12478 112.642 8.56481ZM69.7251 13.1007C65.657 17.4447 61.9676 23.2498 58.9656 30.7571C55.0043 40.6635 55.8191 47.002 58.3669 50.4301C60.8926 53.8283 65.4017 54.7327 69.7503 53.1829C74.076 51.6412 78.1083 47.6872 79.4072 41.5805C80.7065 35.4713 79.2918 27.0725 72.4113 16.6778C71.5544 15.3831 70.6574 14.1919 69.7251 13.1007Z" fill="white"/>
</g>
<defs>
<clipPath id="clip0_2_56">
<rect width="116.65" height="104" fill="white" transform="translate(0.750122 0.369873)"/>
</clipPath>
</defs>
</svg>
