<svg width="35" height="36" viewBox="0 0 35 36" fill="none" xmlns="http://www.w3.org/2000/svg">
<path d="M33.2513 31.6791H21.608C21.1444 31.6791 20.6998 31.495 20.372 31.1672C20.0442 30.8394 19.8601 30.3948 19.8601 29.9312V20.1832C19.8601 15.9512 20.7535 12.6112 22.5404 10.1631C23.5998 8.71159 26.1305 6.84108 30.1325 4.55157C30.3318 4.43719 30.5518 4.36327 30.7798 4.33403C31.0078 4.30478 31.2393 4.3208 31.4611 4.38115C31.6829 4.44151 31.8906 4.54502 32.0724 4.68576C32.2541 4.82649 32.4063 5.0017 32.5203 5.20133L32.54 5.23705L34.1777 8.26398C34.3971 8.66608 34.4498 9.1382 34.3246 9.57878C34.1994 10.0194 33.9062 10.3932 33.5082 10.6199C32.0208 11.3665 30.6527 12.33 29.4485 13.4788C28.4366 14.7083 27.8451 16.2296 27.7606 17.8197H33.2506C33.7141 17.8197 34.1587 18.0039 34.4865 18.3317C34.8143 18.6595 34.9985 19.1041 34.9985 19.5676V29.9282C34.9985 30.3918 34.8143 30.8363 34.4865 31.1641C34.1587 31.4919 33.7141 31.6761 33.2506 31.6761L33.2513 31.6791ZM13.392 31.6791H1.74944C1.28586 31.6791 0.841274 31.495 0.513477 31.1672C0.18568 30.8394 0.00152588 30.3948 0.00152588 29.9312V20.1832C0.00152588 15.9512 0.894987 12.6112 2.68191 10.1631C3.74129 8.71159 6.27196 6.84108 10.2739 4.55157C10.4733 4.43719 10.6933 4.36327 10.9213 4.33403C11.1493 4.30478 11.3808 4.3208 11.6026 4.38115C11.8244 4.44151 12.0321 4.54502 12.2138 4.68576C12.3956 4.82649 12.5478 5.0017 12.6617 5.20133L12.6815 5.23705L14.3199 8.26398C14.5393 8.66608 14.592 9.1382 14.4668 9.57878C14.3416 10.0194 14.0484 10.3932 13.6504 10.6199C12.163 11.3665 10.7949 12.33 9.59071 13.4788C8.57881 14.7083 7.98729 16.2296 7.90284 17.8197H13.3936C13.8571 17.8197 14.3017 18.0039 14.6295 18.3317C14.9573 18.6595 15.1415 19.1041 15.1415 19.5676V29.9282C15.1415 30.3918 14.9573 30.8363 14.6295 31.1641C14.3017 31.4919 13.8571 31.6761 13.3936 31.6761L13.392 31.6791Z" fill="url(#paint0_linear_44_30)"/>
<defs>
<linearGradient id="paint0_linear_44_30" x1="17.5" y1="4.31982" x2="17.5" y2="31.6791" gradientUnits="userSpaceOnUse">
<stop stop-color="#E2C96E"/>
<stop offset="1" stop-color="#B18930"/>
</linearGradient>
</defs>
</svg>
