<svg width="82" height="169" viewBox="0 0 82 169" fill="none" xmlns="http://www.w3.org/2000/svg">
<g clip-path="url(#clip0_77_34)">
<path d="M40.3288 103.313C40.3288 104 40.8863 104.558 41.5738 104.558H59.8975C60.5875 104.558 61.1475 104.002 61.155 103.314V97.0653H40.33L40.3288 103.313ZM39.02 99.9103C38.7974 99.6886 38.4961 99.5641 38.1819 99.5641C37.8677 99.5641 37.5663 99.6886 37.3438 99.9103L36.3788 100.875L38.1825 102.665L39.1475 101.7C39.3588 101.489 39.4888 101.198 39.4888 100.875C39.4888 100.553 39.3588 100.262 39.1475 100.05L39.02 99.9103ZM43.2488 68.7353H58.245C58.3539 68.7354 58.4586 68.693 58.5368 68.6171C58.615 68.5413 58.6605 68.4379 58.6637 68.3291V64.9891C58.6637 64.878 58.6196 64.7715 58.5411 64.693C58.4626 64.6144 58.3561 64.5703 58.245 64.5703H43.2488C43.1377 64.5703 43.0312 64.6144 42.9527 64.693C42.8741 64.7715 42.83 64.878 42.83 64.9891V68.3428C42.83 68.5603 43.0063 68.7366 43.2238 68.7366L43.2488 68.7353ZM40.3288 96.2153H61.1538V80.3928H40.3288V96.2153ZM45.3188 86.6403C45.3282 86.5315 45.3774 86.4299 45.4569 86.355C45.5365 86.2801 45.6408 86.237 45.75 86.2341H48.6588V83.3266C48.6588 83.0928 48.845 82.9016 49.0775 82.8953H52.405C52.5171 82.8989 52.6234 82.9458 52.7015 83.0263C52.7797 83.1068 52.8235 83.2144 52.8238 83.3266V86.2341H55.7313C55.9588 86.2341 56.1425 86.4141 56.15 86.6403V89.9803C56.15 90.2116 55.9625 90.3991 55.7313 90.3991H52.8238V93.3066C52.8238 93.5378 52.6363 93.7253 52.405 93.7253H49.0775C48.9664 93.7253 48.8599 93.6812 48.7814 93.6027C48.7029 93.5241 48.6588 93.4176 48.6588 93.3066V90.3991H45.7513C45.639 90.3991 45.5312 90.3554 45.4506 90.2772C45.3701 90.199 45.3233 90.0925 45.32 89.9803L45.3188 86.6403ZM34.855 102.463H34.83C34.7233 102.572 34.6392 102.7 34.5827 102.842C34.5261 102.983 34.4982 103.134 34.5005 103.287C34.5029 103.439 34.5354 103.589 34.5962 103.729C34.6571 103.869 34.745 103.995 34.855 104.1L34.9825 104.228H34.995C35.1037 104.335 35.2325 104.419 35.374 104.475C35.5154 104.532 35.6667 104.56 35.819 104.557C35.9713 104.555 36.1216 104.522 36.2613 104.462C36.4009 104.401 36.5271 104.313 36.6325 104.203L37.5975 103.275L35.82 101.498L34.855 102.463Z" fill="#B18930"/>
<path d="M49.4962 89.9802V92.9014H51.985V89.9802C51.985 89.7489 52.1725 89.5614 52.4037 89.5614H55.3237V87.0602H52.4025C52.2936 87.0542 52.1907 87.0083 52.1134 86.9313C52.0362 86.8543 51.99 86.7516 51.9837 86.6427V83.7339H49.495V86.6414C49.489 86.7503 49.4432 86.8532 49.3661 86.9305C49.2891 87.0077 49.1864 87.0539 49.0775 87.0602H46.155V89.5614H49.0762C49.3075 89.5614 49.4962 89.7489 49.4962 89.9802ZM63.655 103.313C63.655 104 64.2125 104.558 64.9 104.558H66.17V102.056H64.9125C64.2212 102.064 63.6625 102.623 63.655 103.313ZM65.675 98.1327L63.8975 99.9364L64.85 100.876C64.9546 100.989 65.0811 101.078 65.2218 101.139C65.3624 101.2 65.5141 101.232 65.6675 101.231H65.6762C65.9962 101.204 66.2812 101.074 66.5025 100.875L66.5012 100.876L66.615 100.736C66.825 100.508 66.9416 100.209 66.9416 99.8983C66.9416 99.5879 66.825 99.2888 66.615 99.0602L66.6162 99.0614L65.675 98.1327ZM69.6237 103.186C69.5881 102.853 69.4221 102.547 69.162 102.335C68.9019 102.124 68.5687 102.024 68.235 102.056H68.24H66.9825V104.558H68.24C68.3257 104.571 68.413 104.571 68.4987 104.558H68.4937H68.5187C68.6819 104.54 68.8399 104.49 68.9838 104.412C69.1277 104.333 69.2547 104.226 69.3573 104.098C69.46 103.97 69.5364 103.823 69.5821 103.666C69.6278 103.508 69.642 103.343 69.6237 103.18V103.186ZM56.3412 69.5864H45.1412L41.9287 74.3864C40.9027 75.9187 40.3465 77.7174 40.3287 79.5614V79.5677H61.1537C61.1287 77.7086 60.5651 75.8967 59.5312 74.3514L59.5537 74.3864L56.3412 69.5864ZM64.125 96.5702C63.8989 96.3552 63.5988 96.2353 63.2869 96.2353C62.9749 96.2353 62.6748 96.3552 62.4487 96.5702L62.335 96.6977C62.1179 96.9233 61.9915 97.221 61.98 97.5339V97.5364C61.9837 97.6962 62.0192 97.8537 62.0845 97.9997C62.1497 98.1456 62.2434 98.2771 62.36 98.3864L63.3 99.3389L65.09 97.5352L64.125 96.5702Z" fill="#B18930"/>
</g>
<defs>
<clipPath id="clip0_77_34">
<rect width="40" height="40" fill="white" transform="translate(32 64.5703)"/>
</clipPath>
</defs>
</svg>
