<svg width="82" height="105" viewBox="0 0 82 105" fill="none" xmlns="http://www.w3.org/2000/svg">
<path d="M0 10C0 4.47716 4.47715 0 10 0H82V104.19H10C4.47715 104.19 0 99.7129 0 94.19V10Z" fill="#E2C96E" fill-opacity="0.9"/>
<g clip-path="url(#clip0_64_321)">
<path d="M55.933 65.9568H27.133V37.1568C27.133 36.8739 27.0206 36.6025 26.8205 36.4024C26.6204 36.2023 26.349 36.0898 26.066 36.0898C25.783 36.0898 25.5116 36.2023 25.3115 36.4024C25.1114 36.6025 24.999 36.8739 24.999 37.1568V67.0238C24.999 67.6128 25.476 68.0908 26.066 68.0908H55.933C56.216 68.0908 56.4874 67.9784 56.6875 67.7783C56.8876 67.5782 57 67.3068 57 67.0238C57 66.7409 56.8876 66.4695 56.6875 66.2694C56.4874 66.0693 56.216 65.9568 55.933 65.9568Z" fill="white"/>
<path d="M32.467 55.2898C32.751 55.2898 33.026 55.1778 33.229 54.9848L48.467 39.7268V41.4238C48.467 41.7068 48.5794 41.9782 48.7795 42.1783C48.9796 42.3784 49.251 42.4908 49.534 42.4908C49.817 42.4908 50.0884 42.3784 50.2885 42.1783C50.4886 41.9782 50.601 41.7068 50.601 41.4238V37.1568C50.601 36.5678 50.124 36.0898 49.534 36.0898H45.267C44.984 36.0898 44.7126 36.2023 44.5125 36.4024C44.3124 36.6025 44.2 36.8739 44.2 37.1568C44.2 37.4398 44.3124 37.7112 44.5125 37.9113C44.7126 38.1114 44.984 38.2238 45.267 38.2238H46.964L31.706 53.4618C31.5066 53.6605 31.3937 53.9298 31.3918 54.2113C31.39 54.4927 31.4993 54.7635 31.696 54.9648L31.706 54.9748C31.909 55.1778 32.182 55.2898 32.467 55.2898Z" fill="white"/>
<path d="M46.333 45.69V63.823H52.733V45.69C52.733 45.101 52.256 44.623 51.666 44.623H47.399C46.81 44.623 46.333 45.1 46.333 45.69ZM38.867 53.157C38.278 53.157 37.8 53.634 37.8 54.224V63.824H44.2V54.224C44.2 53.635 43.723 53.157 43.133 53.157H38.867ZM35.667 58.49C35.667 57.901 35.19 57.423 34.6 57.423H30.333C29.744 57.423 29.266 57.9 29.266 58.49V63.823H35.666L35.667 58.49Z" fill="white"/>
</g>
<defs>
<clipPath id="clip0_64_321">
<rect width="32" height="32" fill="white" transform="translate(25 36.0898)"/>
</clipPath>
</defs>
</svg>
