<svg width="82" height="105" viewBox="0 0 82 105" fill="none" xmlns="http://www.w3.org/2000/svg">
<path d="M0 10.1802C0 4.65733 4.47715 0.180176 10 0.180176H82V104.37H10C4.47715 104.37 0 99.893 0 94.3702V10.1802Z" fill="#E2C96E" fill-opacity="0.9"/>
<g clip-path="url(#clip0_64_249)">
<path d="M54.867 40.5474V41.6144C54.867 42.4631 54.5299 43.277 53.9297 43.8771C53.3296 44.4772 52.5157 44.8144 51.667 44.8144C50.8183 44.8144 50.0044 44.4772 49.4043 43.8771C48.8041 43.277 48.467 42.4631 48.467 41.6144V40.5474H44.2V41.6144C44.2 42.4631 43.8629 43.277 43.2627 43.8771C42.6626 44.4772 41.8487 44.8144 41 44.8144C40.1513 44.8144 39.3374 44.4772 38.7373 43.8771C38.1371 43.277 37.8 42.4631 37.8 41.6144V40.5474H33.533V41.6144C33.533 42.4631 33.1959 43.277 32.5957 43.8771C31.9956 44.4772 31.1817 44.8144 30.333 44.8144C29.4843 44.8144 28.6704 44.4772 28.0703 43.8771C27.4701 43.277 27.133 42.4631 27.133 41.6144V40.5474C26.5673 40.5474 26.0248 40.7721 25.6247 41.1721C25.2247 41.5721 25 42.1147 25 42.6804V66.1474C25 67.3254 25.955 68.2804 27.133 68.2804H54.866C55.4317 68.2804 55.9742 68.0556 56.3743 67.6556C56.7743 67.2556 56.999 66.7131 56.999 66.1474V42.6804C56.999 42.1147 56.7743 41.5721 56.3743 41.1721C55.9742 40.7721 55.4317 40.5474 54.866 40.5474H54.867ZM50.295 51.9754L37.495 64.7754C37.3958 64.8759 37.2769 64.9548 37.1458 65.0073C37.0147 65.0598 36.8742 65.0846 36.733 65.0804H32.466C32.183 65.0804 31.9116 64.9679 31.7115 64.7678C31.5114 64.5677 31.399 64.2963 31.399 64.0134V59.7464C31.399 59.4624 31.511 59.1874 31.704 58.9844L44.504 46.1844C44.7029 45.9855 44.9722 45.8729 45.2534 45.871C45.5347 45.8692 45.8055 45.9781 46.007 46.1744L46.017 46.1844L50.284 50.4514C50.711 50.8674 50.712 51.5484 50.295 51.9754C50.295 51.9654 50.295 51.9654 50.295 51.9754Z" fill="white"/>
<path d="M30.333 42.6803C30.05 42.6803 29.7786 42.5679 29.5785 42.3678C29.3784 42.1677 29.266 41.8963 29.266 41.6133V37.3463C29.266 37.2062 29.2936 37.0674 29.3472 36.938C29.4008 36.8085 29.4794 36.6909 29.5785 36.5918C29.6776 36.4927 29.7952 36.4141 29.9247 36.3605C30.0541 36.3069 30.1929 36.2793 30.333 36.2793C30.4731 36.2793 30.6119 36.3069 30.7413 36.3605C30.8708 36.4141 30.9884 36.4927 31.0875 36.5918C31.1866 36.6909 31.2651 36.8085 31.3188 36.938C31.3724 37.0674 31.4 37.2062 31.4 37.3463V41.6133C31.4 42.2023 30.923 42.6803 30.333 42.6803ZM41 42.6803C40.717 42.6803 40.4456 42.5679 40.2455 42.3678C40.0454 42.1677 39.933 41.8963 39.933 41.6133V37.3463C39.933 37.0633 40.0454 36.7919 40.2455 36.5918C40.4456 36.3917 40.717 36.2793 41 36.2793C41.283 36.2793 41.5544 36.3917 41.7545 36.5918C41.9546 36.7919 42.067 37.0633 42.067 37.3463V41.6133C42.067 42.2023 41.59 42.6803 41 42.6803ZM51.667 42.6803C51.384 42.6803 51.1126 42.5679 50.9125 42.3678C50.7124 42.1677 50.6 41.8963 50.6 41.6133V37.3463C50.6 37.0633 50.7124 36.7919 50.9125 36.5918C51.1126 36.3917 51.384 36.2793 51.667 36.2793C51.95 36.2793 52.2214 36.3917 52.4215 36.5918C52.6216 36.7919 52.734 37.0633 52.734 37.3463V41.6133C52.734 42.2023 52.257 42.6803 51.667 42.6803Z" fill="white"/>
</g>
<defs>
<clipPath id="clip0_64_249">
<rect width="32" height="32" fill="white" transform="translate(25 36.2803)"/>
</clipPath>
</defs>
</svg>
