<svg width="32" height="46" viewBox="0 0 32 46" fill="none" xmlns="http://www.w3.org/2000/svg">
<path d="M25.0003 17.5377C24.3269 17.8362 23.6125 18.032 22.881 18.1187C23.651 17.6576 24.2274 16.9327 24.5032 16.0786C23.7779 16.5082 22.9848 16.8111 22.1578 16.9745C21.8128 16.6058 21.3956 16.312 20.9321 16.1115C20.4687 15.9109 19.969 15.8079 19.464 15.8088C18.9078 15.8085 18.3587 15.934 17.8579 16.1758C17.357 16.4177 16.9173 16.7696 16.5715 17.2053C16.2258 17.6409 15.983 18.1491 15.8614 18.6919C15.7397 19.2346 15.7422 19.7978 15.8689 20.3394C14.4015 20.2658 12.966 19.8845 11.6556 19.2202C10.3452 18.5559 9.18912 17.6235 8.26243 16.4834C7.93395 17.0462 7.7617 17.6866 7.76349 18.3382C7.76306 18.9458 7.91265 19.544 8.19898 20.0799C8.48531 20.6157 8.89952 21.0725 9.40483 21.4098C8.81868 21.3904 8.24558 21.2317 7.73291 20.9469V20.9931C7.73332 21.8451 8.02822 22.6708 8.56766 23.3304C9.1071 23.9899 9.85792 24.4427 10.693 24.6122C10.3758 24.698 10.0488 24.7415 9.72027 24.7417C9.48219 24.7417 9.25132 24.7183 9.02523 24.6733C9.26082 25.4066 9.71976 26.0479 10.3378 26.5075C10.9559 26.9671 11.7022 27.2219 12.4722 27.2364C11.1647 28.2615 9.55032 28.817 7.88883 28.8136C7.59078 28.8136 7.29753 28.7956 7.00848 28.7632C8.69525 29.849 10.6593 30.4256 12.6653 30.4237C19.4544 30.4237 23.1653 24.8005 23.1653 19.9238L23.1527 19.4459C23.8782 18.9273 24.5036 18.2814 24.9985 17.5395L25.0003 17.5377Z" fill="white"/>
</svg>
