<svg width="82" height="105" viewBox="0 0 82 105" fill="none" xmlns="http://www.w3.org/2000/svg">
<path d="M0 10C0 4.47716 4.47715 0 10 0H82V104.19H10C4.47715 104.19 0 99.7129 0 94.19V10Z" fill="#E2C96E" fill-opacity="0.9"/>
<g clip-path="url(#clip0_64_256)">
<path d="M35.362 43.8606C40.573 43.7386 47.908 39.7866 51.474 37.3796L51.596 62.3596C47.98 59.9216 40.543 55.9086 35.362 55.7766V43.8606ZM25 49.8246C25.0053 48.2495 25.6325 46.7402 26.7452 45.6252C27.8578 44.5103 29.3659 43.8801 30.941 43.8716H34.092V55.7776H30.943C29.367 55.7721 27.8572 55.1429 26.7436 54.0277C25.63 52.9124 25.0032 51.4017 25 49.8256V49.8246ZM38.135 66.8396C38.2122 67.008 38.2252 67.1988 38.1716 67.3762C38.1181 67.5535 38.0015 67.7051 37.844 67.8026L37.841 67.8046L37.76 67.8346C37.6639 67.8735 37.5624 67.8975 37.459 67.9056H34.59H34.589C34.5747 67.9056 34.5609 67.9006 34.5499 67.8915C34.539 67.8823 34.5316 67.8697 34.529 67.8556L31.451 57.0366H33.676L38.135 66.8396ZM53.526 62.9496C53.5242 63.0411 53.4957 63.1301 53.444 63.2056L53.445 63.2036C53.3786 63.2878 53.2824 63.3432 53.1762 63.3583C53.0701 63.3734 52.9622 63.347 52.875 63.2846L52.876 63.2856L52.551 62.9706L52.419 36.7916L52.876 36.3756C52.9373 36.331 53.0095 36.3038 53.085 36.2967C53.1605 36.2897 53.2365 36.3031 53.305 36.3356L53.302 36.3346C53.3693 36.3684 53.426 36.4202 53.4655 36.4843C53.5051 36.5484 53.526 36.6223 53.526 36.6976V36.7006V62.9496ZM54.796 52.8516V46.7966C56.087 47.2206 57.003 48.4156 57.003 49.8236C57.003 51.2316 56.087 52.4266 54.818 52.8446L54.796 52.8516Z" fill="white"/>
</g>
<defs>
<clipPath id="clip0_64_256">
<rect width="32" height="32" fill="white" transform="translate(25 36.0898)"/>
</clipPath>
</defs>
</svg>
