<svg width="82" height="169" viewBox="0 0 82 169" fill="none" xmlns="http://www.w3.org/2000/svg">
<g clip-path="url(#clip0_77_20)">
<path d="M52.5462 79.7193C52.5462 79.8608 52.49 79.9966 52.3899 80.0967C52.2898 80.1968 52.1541 80.253 52.0125 80.253C51.8709 80.253 51.7352 80.1968 51.6351 80.0967C51.535 79.9966 51.4788 79.8608 51.4788 79.7193C51.4788 79.5777 51.535 79.4419 51.6351 79.3418C51.7352 79.2417 51.8709 79.1855 52.0125 79.1855C52.1541 79.1855 52.2898 79.2417 52.3899 79.3418C52.49 79.4419 52.5462 79.5777 52.5462 79.7193ZM52.5462 84.4943C52.5462 84.6358 52.49 84.7716 52.3899 84.8717C52.2898 84.9718 52.1541 85.028 52.0125 85.028C51.8709 85.028 51.7352 84.9718 51.6351 84.8717C51.535 84.7716 51.4788 84.6358 51.4788 84.4943C51.4788 84.3527 51.535 84.2169 51.6351 84.1168C51.7352 84.0167 51.8709 83.9605 52.0125 83.9605C52.1541 83.9605 52.2898 84.0167 52.3899 84.1168C52.49 84.2169 52.5462 84.3527 52.5462 84.4943ZM52.5462 89.243C52.5462 89.3846 52.49 89.5203 52.3899 89.6204C52.2898 89.7205 52.1541 89.7768 52.0125 89.7768C51.8709 89.7768 51.7352 89.7205 51.6351 89.6204C51.535 89.5203 51.4788 89.3846 51.4788 89.243C51.4788 89.1015 51.535 88.9657 51.6351 88.8656C51.7352 88.7655 51.8709 88.7093 52.0125 88.7093C52.1541 88.7093 52.2898 88.7655 52.3899 88.8656C52.49 88.9657 52.5462 89.1015 52.5462 89.243ZM52.6725 96.6343L58.1838 102.133C58.9367 102.885 59.8305 103.482 60.8139 103.888C61.7974 104.295 62.8514 104.504 63.9157 104.504C64.9799 104.503 66.0337 104.293 67.0167 103.885C67.9998 103.477 68.8929 102.88 69.645 102.127C70.3971 101.374 70.9936 100.48 71.4004 99.4966C71.8071 98.5131 72.0162 97.4591 72.0156 96.3948C72.015 95.3306 71.8048 94.2768 71.397 93.2938C70.9892 92.3107 70.3917 91.4177 69.6388 90.6655L64.1275 85.1668L52.6725 96.6343ZM57.2825 84.4943C57.2825 84.6358 57.2263 84.7716 57.1262 84.8717C57.0261 84.9718 56.8903 85.028 56.7487 85.028C56.6072 85.028 56.4714 84.9718 56.3713 84.8717C56.2712 84.7716 56.215 84.6358 56.215 84.4943C56.215 84.3527 56.2712 84.2169 56.3713 84.1168C56.4714 84.0167 56.6072 83.9605 56.7487 83.9605C56.8903 83.9605 57.0261 84.0167 57.1262 84.1168C57.2263 84.2169 57.2825 84.3527 57.2825 84.4943ZM69.6375 78.323C71.0977 76.792 71.9011 74.7505 71.8758 72.635C71.8506 70.5194 70.9987 68.4977 69.5023 67.002C68.006 65.5063 65.9839 64.6553 63.8683 64.631C61.7528 64.6066 59.7116 65.4109 58.1812 66.8718L58.185 66.8693L52.6737 72.3805L64.1275 83.8343L69.6375 78.323ZM51.34 72.3805L45.8287 66.8693C44.2977 65.409 42.2563 64.6057 40.1407 64.6309C38.0252 64.6562 36.0034 65.5081 34.5077 67.0044C33.012 68.5008 32.161 70.5229 32.1367 72.6384C32.1124 74.754 32.9166 76.7951 34.3775 78.3255L34.375 78.3218L39.8862 83.833L51.34 72.3805ZM45.8287 102.133L51.34 96.6343L39.8862 85.168L34.375 90.6668C33.622 91.4189 33.0246 92.312 32.6168 93.295C32.209 94.2781 31.9988 95.3318 31.9982 96.3961C31.9976 97.4604 32.2066 98.5143 32.6134 99.4978C33.0201 100.481 33.6166 101.375 34.3687 102.128C35.1209 102.881 36.014 103.478 36.997 103.886C37.9801 104.294 39.0338 104.504 40.0981 104.505C41.1624 104.505 42.2163 104.296 43.1998 103.89C44.1833 103.483 45.077 102.886 45.83 102.134L45.8287 102.133ZM47.7587 84.4943C47.7587 84.5644 47.7449 84.6338 47.7181 84.6985C47.6913 84.7633 47.652 84.8221 47.6024 84.8717C47.5529 84.9212 47.494 84.9606 47.4293 84.9874C47.3645 85.0142 47.2951 85.028 47.225 85.028C47.1549 85.028 47.0855 85.0142 47.0207 84.9874C46.956 84.9606 46.8971 84.9212 46.8476 84.8717C46.798 84.8221 46.7587 84.7633 46.7319 84.6985C46.7051 84.6338 46.6912 84.5644 46.6912 84.4943C46.6912 84.3527 46.7475 84.2169 46.8476 84.1168C46.9477 84.0167 47.0834 83.9605 47.225 83.9605C47.3666 83.9605 47.5023 84.0167 47.6024 84.1168C47.7025 84.2169 47.7587 84.3527 47.7587 84.4943Z" fill="#B18930"/>
<path d="M51.9875 95.9477L63.4538 84.5065L51.9875 73.0527L40.5462 84.5065L51.9875 95.9477ZM56.7487 83.0215H56.7612C56.9687 83.0011 57.178 83.0245 57.3758 83.0902C57.5736 83.1559 57.7554 83.2625 57.9094 83.4029C58.0633 83.5434 58.1861 83.7146 58.2696 83.9056C58.3531 84.0965 58.3956 84.3029 58.3943 84.5113C58.393 84.7197 58.3479 84.9255 58.2619 85.1153C58.176 85.3052 58.0511 85.4749 57.8953 85.6134C57.7396 85.7519 57.5565 85.8561 57.3579 85.9193C57.1593 85.9825 56.9496 86.0033 56.7425 85.9802H56.7487C56.3581 85.9737 55.9854 85.8148 55.7103 85.5374C55.4352 85.2599 55.2795 84.8859 55.2762 84.4952C55.2762 83.6815 55.9362 83.0215 56.7487 83.0215ZM52.0125 78.2465C52.3037 78.2465 52.5884 78.3328 52.8306 78.4946C53.0727 78.6564 53.2615 78.8864 53.3729 79.1555C53.4844 79.4245 53.5135 79.7206 53.4567 80.0063C53.3999 80.2919 53.2596 80.5543 53.0537 80.7602C52.8478 80.9661 52.5854 81.1064 52.2998 81.1632C52.0141 81.22 51.7181 81.1908 51.449 81.0794C51.1799 80.9679 50.95 80.7792 50.7882 80.5371C50.6264 80.2949 50.54 80.0102 50.54 79.719C50.54 78.9052 51.2 78.2465 52.0125 78.2465ZM52.0125 83.0215H52.025C52.3193 83.0212 52.6071 83.1083 52.8519 83.2717C53.0967 83.435 53.2875 83.6673 53.4003 83.9392C53.513 84.211 53.5426 84.5102 53.4852 84.7989C53.4279 85.0875 53.2862 85.3527 53.0781 85.5608C52.87 85.7689 52.6048 85.9106 52.3161 85.968C52.0275 86.0253 51.7283 85.9958 51.4564 85.883C51.1846 85.7703 50.9523 85.5794 50.7889 85.3346C50.6256 85.0898 50.5385 84.802 50.5387 84.5077V84.494C50.5387 83.6802 51.1988 83.0227 52.0113 83.0227L52.0125 83.0215ZM52.0125 87.7702H52.025C52.3193 87.77 52.6071 87.857 52.8519 88.0204C53.0967 88.1838 53.2875 88.4161 53.4003 88.6879C53.513 88.9598 53.5426 89.259 53.4852 89.5476C53.4279 89.8363 53.2862 90.1015 53.0781 90.3096C52.87 90.5177 52.6048 90.6594 52.3161 90.7167C52.0275 90.7741 51.7283 90.7445 51.4564 90.6318C51.1846 90.519 50.9523 90.3282 50.7889 90.0834C50.6256 89.8386 50.5385 89.5508 50.5387 89.2565V89.2427C50.5387 88.429 51.1988 87.7715 52.0113 87.7715L52.0125 87.7702ZM47.225 83.0215H47.2375C47.5318 83.0212 47.8196 83.1083 48.0644 83.2717C48.3092 83.435 48.5 83.6673 48.6128 83.9392C48.7255 84.211 48.7551 84.5102 48.6977 84.7989C48.6404 85.0875 48.4987 85.3527 48.2906 85.5608C48.0825 85.7689 47.8173 85.9106 47.5286 85.968C47.24 86.0253 46.9408 85.9958 46.6689 85.883C46.3971 85.7703 46.1648 85.5794 46.0014 85.3346C45.8381 85.0898 45.751 84.802 45.7513 84.5077V84.494C45.7545 84.1045 45.9107 83.7331 46.1861 83.4576C46.4616 83.1822 46.8342 83.026 47.2237 83.0227H47.225V83.0215Z" fill="#B18930"/>
</g>
<defs>
<clipPath id="clip0_77_20">
<rect width="40" height="40" fill="white" transform="translate(32 64.5703)"/>
</clipPath>
</defs>
</svg>
