<svg width="82" height="105" viewBox="0 0 82 105" fill="none" xmlns="http://www.w3.org/2000/svg">
<path d="M0 10.1799C0 4.65709 4.47715 0.179932 10 0.179932H82V104.37H10C4.47715 104.37 0 99.8928 0 94.3699V10.1799Z" fill="#E2C96E" fill-opacity="0.9"/>
<g clip-path="url(#clip0_3_177)">
<path d="M54.867 40.5471V41.6141C54.867 42.4628 54.5299 43.2767 53.9297 43.8769C53.3296 44.477 52.5157 44.8141 51.667 44.8141C50.8183 44.8141 50.0044 44.477 49.4043 43.8769C48.8041 43.2767 48.467 42.4628 48.467 41.6141V40.5471H44.2V41.6141C44.2 42.4628 43.8629 43.2767 43.2627 43.8769C42.6626 44.477 41.8487 44.8141 41 44.8141C40.1513 44.8141 39.3374 44.477 38.7373 43.8769C38.1371 43.2767 37.8 42.4628 37.8 41.6141V40.5471H33.533V41.6141C33.533 42.4628 33.1959 43.2767 32.5957 43.8769C31.9956 44.477 31.1817 44.8141 30.333 44.8141C29.4843 44.8141 28.6704 44.477 28.0703 43.8769C27.4701 43.2767 27.133 42.4628 27.133 41.6141V40.5471C26.5673 40.5471 26.0248 40.7718 25.6247 41.1719C25.2247 41.5719 25 42.1144 25 42.6801V66.1471C25 67.3251 25.955 68.2801 27.133 68.2801H54.866C55.4317 68.2801 55.9742 68.0554 56.3743 67.6554C56.7743 67.2554 56.999 66.7128 56.999 66.1471V42.6801C56.999 42.1144 56.7743 41.5719 56.3743 41.1719C55.9742 40.7718 55.4317 40.5471 54.866 40.5471H54.867ZM50.295 51.9751L37.495 64.7751C37.3958 64.8756 37.2769 64.9546 37.1458 65.0071C37.0147 65.0595 36.8742 65.0844 36.733 65.0801H32.466C32.183 65.0801 31.9116 64.9677 31.7115 64.7676C31.5114 64.5675 31.399 64.2961 31.399 64.0131V59.7461C31.399 59.4621 31.511 59.1871 31.704 58.9841L44.504 46.1841C44.7029 45.9852 44.9722 45.8727 45.2534 45.8708C45.5347 45.8689 45.8055 45.9779 46.007 46.1741L46.017 46.1841L50.284 50.4511C50.711 50.8671 50.712 51.5481 50.295 51.9751C50.295 51.9651 50.295 51.9651 50.295 51.9751Z" fill="white"/>
<path d="M30.333 42.6801C30.05 42.6801 29.7786 42.5676 29.5785 42.3675C29.3784 42.1674 29.266 41.896 29.266 41.6131V37.3461C29.266 37.2059 29.2936 37.0672 29.3472 36.9377C29.4008 36.8083 29.4794 36.6906 29.5785 36.5916C29.6776 36.4925 29.7952 36.4139 29.9247 36.3603C30.0541 36.3067 30.1929 36.2791 30.333 36.2791C30.4731 36.2791 30.6119 36.3067 30.7413 36.3603C30.8708 36.4139 30.9884 36.4925 31.0875 36.5916C31.1866 36.6906 31.2651 36.8083 31.3188 36.9377C31.3724 37.0672 31.4 37.2059 31.4 37.3461V41.6131C31.4 42.2021 30.923 42.6801 30.333 42.6801ZM41 42.6801C40.717 42.6801 40.4456 42.5676 40.2455 42.3675C40.0454 42.1674 39.933 41.896 39.933 41.6131V37.3461C39.933 37.0631 40.0454 36.7917 40.2455 36.5916C40.4456 36.3915 40.717 36.2791 41 36.2791C41.283 36.2791 41.5544 36.3915 41.7545 36.5916C41.9546 36.7917 42.067 37.0631 42.067 37.3461V41.6131C42.067 42.2021 41.59 42.6801 41 42.6801ZM51.667 42.6801C51.384 42.6801 51.1126 42.5676 50.9125 42.3675C50.7124 42.1674 50.6 41.896 50.6 41.6131V37.3461C50.6 37.0631 50.7124 36.7917 50.9125 36.5916C51.1126 36.3915 51.384 36.2791 51.667 36.2791C51.95 36.2791 52.2214 36.3915 52.4215 36.5916C52.6216 36.7917 52.734 37.0631 52.734 37.3461V41.6131C52.734 42.2021 52.257 42.6801 51.667 42.6801Z" fill="white"/>
</g>
<defs>
<clipPath id="clip0_3_177">
<rect width="32" height="32" fill="white" transform="translate(25 36.28)"/>
</clipPath>
</defs>
</svg>
