<svg width="82" height="169" viewBox="0 0 82 169" fill="none" xmlns="http://www.w3.org/2000/svg">
<g clip-path="url(#clip0_77_157)">
<path d="M69.0212 70.1102C68.1372 68.3244 66.7703 66.8222 65.0756 65.774C63.3809 64.7258 61.4264 64.1737 59.4337 64.1802C58.5564 64.179 57.6875 64.3511 56.8769 64.6866C56.0663 65.0221 55.3299 65.5144 54.71 66.1352C53.9586 66.8857 52.9401 67.3071 51.8781 67.3071C50.8162 67.3071 49.7976 66.8857 49.0462 66.1352C48.4258 65.5151 47.6893 65.0233 46.8788 64.6879C46.0683 64.3524 45.1997 64.1799 44.3225 64.1802C42.3299 64.174 40.3755 64.7262 38.6809 65.7744C36.9862 66.8225 35.6193 68.3246 34.735 70.1102C33.795 72.0074 33.288 74.0896 33.2506 76.2065C33.2132 78.3235 33.6463 80.4223 34.5187 82.3515C36.3465 86.4592 37.4875 90.8391 37.8962 95.3165L38.3025 99.6852C38.3692 100.339 38.564 100.973 38.8758 101.552C39.1876 102.13 39.6103 102.641 40.1198 103.057C40.6292 103.472 41.2155 103.782 41.845 103.971C42.4745 104.159 43.135 104.222 43.7887 104.155C44.9337 104.037 46.003 103.527 46.817 102.713C47.631 101.899 48.14 100.83 48.2587 99.6852L49.0712 91.6727C49.1151 91.2403 49.2583 90.8239 49.4897 90.4559C49.7211 90.088 50.0343 89.7784 50.405 89.5515C50.8807 89.2406 51.4367 89.0751 52.005 89.0751C52.5733 89.0751 53.1293 89.2406 53.605 89.5515C53.9623 89.7871 54.2619 90.1002 54.4818 90.4674C54.7016 90.8346 54.836 91.2465 54.875 91.6727L55.6875 99.6852C55.7548 100.34 55.9504 100.975 56.2632 101.554C56.576 102.133 56.9999 102.645 57.5106 103.06C58.0212 103.475 58.6087 103.785 59.2394 103.973C59.8701 104.161 60.5316 104.223 61.1862 104.155C62.3312 104.037 63.4005 103.527 64.2145 102.713C65.0285 101.899 65.5375 100.83 65.6562 99.6852L66.0625 95.3165C66.4681 90.8386 67.6093 86.4582 69.44 82.3515C70.2804 80.4072 70.6788 78.3007 70.6064 76.1838C70.534 74.0669 69.9926 71.9925 69.0212 70.1102Z" fill="#B18930"/>
</g>
<defs>
<clipPath id="clip0_77_157">
<rect width="40" height="40" fill="white" transform="translate(32 64.1802)"/>
</clipPath>
</defs>
</svg>
