<svg width="82" height="169" viewBox="0 0 82 169" fill="none" xmlns="http://www.w3.org/2000/svg">
<g clip-path="url(#clip0_77_50)">
<path d="M65.3338 81.5137C61.3338 81.5137 58.6675 85.1324 58.6675 88.9937V90.8474C58.6675 91.5837 59.2638 92.1812 60.0013 92.1812H70.6675C71.4038 92.1812 72.0013 91.5849 72.0013 90.8474V88.9937C72.0013 85.1074 69.335 81.5149 65.335 81.5149L65.3338 81.5137ZM64 66.8462H66.6663C67.7271 66.8462 68.7445 67.2676 69.4947 68.0178C70.2448 68.7679 70.6663 69.7853 70.6663 70.8462V76.1799C70.6663 77.2408 70.2448 78.2582 69.4947 79.0084C68.7445 79.7585 67.7271 80.1799 66.6663 80.1799H64C62.9391 80.1799 61.9217 79.7585 61.1716 79.0084C60.4214 78.2582 60 77.2408 60 76.1799V70.8462C60 69.7853 60.4214 68.7679 61.1716 68.0178C61.9217 67.2676 62.9391 66.8462 64 66.8462ZM45.3338 90.8462V88.9924C45.3338 85.1199 42.6675 81.5137 38.6675 81.5137C34.6675 81.5137 32.0013 85.1324 32.0013 88.9924V90.8462C32.0013 91.5824 32.5975 92.1799 33.335 92.1799H44.0013C44.7375 92.1799 45.335 91.5837 45.335 90.8462H45.3338ZM37.3338 66.8462H40C41.0609 66.8462 42.0783 67.2676 42.8284 68.0178C43.5786 68.7679 44 69.7853 44 70.8462V76.1799C44 77.2408 43.5786 78.2582 42.8284 79.0084C42.0783 79.7585 41.0609 80.1799 40 80.1799H37.3338C36.2729 80.1799 35.2555 79.7585 34.5053 79.0084C33.7552 78.2582 33.3338 77.2408 33.3338 76.1799V70.8462C33.3338 69.7853 33.7552 68.7679 34.5053 68.0178C35.2555 67.2676 36.2729 66.8462 37.3338 66.8462ZM52 89.5137C50.9285 89.5343 49.8716 89.7659 48.8896 90.1951C47.9076 90.6243 47.0198 91.2428 46.2769 92.0151C45.534 92.7875 44.9506 93.6987 44.5599 94.6967C44.1692 95.6946 43.9789 96.7597 44 97.8312V100.18C44 100.916 44.5963 101.514 45.3338 101.514H58.6675C59.4038 101.514 60.0013 100.917 60.0013 100.18V97.8312C60.0775 93.3362 56.5075 89.6024 52 89.5137ZM50.6663 69.5137H53.3325C54.033 69.5135 54.7266 69.6514 55.3738 69.9194C56.021 70.1874 56.6091 70.5802 57.1044 71.0755C57.5997 71.5709 57.9926 72.1589 58.2606 72.8061C58.5286 73.4533 58.6664 74.147 58.6663 74.8474V81.5137C58.6664 82.2142 58.5286 82.9078 58.2606 83.555C57.9926 84.2022 57.5997 84.7903 57.1044 85.2856C56.6091 85.7809 56.021 86.1738 55.3738 86.4418C54.7266 86.7098 54.033 86.8476 53.3325 86.8474H50.6663C49.9658 86.8476 49.2721 86.7098 48.6249 86.4418C47.9777 86.1738 47.3897 85.7809 46.8944 85.2856C46.399 84.7903 46.0062 84.2022 45.7382 83.555C45.4702 82.9078 45.3323 82.2142 45.3325 81.5137V74.8474C45.3323 74.147 45.4702 73.4533 45.7382 72.8061C46.0062 72.1589 46.399 71.5709 46.8944 71.0755C47.3897 70.5802 47.9777 70.1874 48.6249 69.9194C49.2721 69.6514 49.9658 69.5135 50.6663 69.5137Z" fill="#B18930"/>
</g>
<defs>
<clipPath id="clip0_77_50">
<rect width="40" height="40" fill="white" transform="translate(32 64.1802)"/>
</clipPath>
</defs>
</svg>
