<svg width="82" height="105" viewBox="0 0 82 105" fill="none" xmlns="http://www.w3.org/2000/svg">
<path d="M0 10.1802C0 4.65733 4.47715 0.180176 10 0.180176H82V104.37H10C4.47715 104.37 0 99.893 0 94.3702V10.1802Z" fill="#E2C96E" fill-opacity="0.9"/>
<g clip-path="url(#clip0_64_287)">
<path d="M35.291 39.1245V44.9045H36.734V40.5365H45.267V44.9045H46.71V39.1245H35.291ZM57 65.4155H25V54.5555H37.576V55.1245C37.576 55.7525 38.085 56.2625 38.714 56.2625H43.285C43.913 56.2625 44.423 55.7535 44.423 55.1245V54.5555H56.999L57 65.4155Z" fill="white"/>
<path d="M38.714 52.8394H43.285V55.1274H38.714V52.8394Z" fill="white"/>
<path d="M57 53.4085H44.424V52.8395C44.424 52.2115 43.915 51.7015 43.286 51.7015H38.715C38.087 51.7015 37.577 52.2105 37.577 52.8395V53.4085H25.001V44.8345H57.001L57 53.4085Z" fill="white"/>
</g>
<defs>
<clipPath id="clip0_64_287">
<rect width="32" height="32" fill="white" transform="translate(25 36.2803)"/>
</clipPath>
</defs>
</svg>
