<svg width="82" height="105" viewBox="0 0 82 105" fill="none" xmlns="http://www.w3.org/2000/svg">
<path d="M0 10.1802C0 4.65733 4.47715 0.180176 10 0.180176H82V104.37H10C4.47715 104.37 0 99.893 0 94.3702V10.1802Z" fill="#E2C96E" fill-opacity="0.9"/>
<g clip-path="url(#clip0_64_242)">
<path d="M55.923 66.147H27.133V37.357C27.133 37.0741 27.0206 36.8027 26.8205 36.6026C26.6204 36.4025 26.349 36.29 26.066 36.29C25.783 36.29 25.5116 36.4025 25.3115 36.6026C25.1114 36.8027 24.999 37.0741 24.999 37.357V67.214C24.999 67.803 25.476 68.281 26.066 68.281H55.923C56.206 68.281 56.4774 68.1686 56.6775 67.9685C56.8776 67.7684 56.99 67.497 56.99 67.214C56.99 66.9311 56.8776 66.6597 56.6775 66.4596C56.4774 66.2595 56.206 66.147 55.923 66.147Z" fill="white"/>
<path d="M31.085 58.3751L32.456 56.9931V64.0131H34.589V56.9831L35.96 58.3651C36.376 58.7811 37.057 58.7811 37.474 58.3651C37.891 57.9491 37.89 57.2681 37.474 56.8511L34.274 53.6511C34.0751 53.4522 33.8058 53.3396 33.5246 53.3378C33.2433 53.3359 32.9725 53.4449 32.771 53.6411L32.761 53.6511L29.571 56.8611C29.3708 57.0622 29.2584 57.3344 29.2584 57.6181C29.2584 57.9018 29.3708 58.174 29.571 58.3751C29.7722 58.575 30.0443 58.6872 30.328 58.6872C30.6117 58.6872 30.8838 58.575 31.085 58.3751ZM40.685 49.8421L42.056 48.4601V64.0131H44.189V48.4501L45.56 49.8321C45.976 50.2481 46.657 50.2481 47.074 49.8321C47.491 49.4161 47.49 48.7351 47.074 48.3181L43.874 45.1181C43.6751 44.9192 43.4058 44.8066 43.1246 44.8048C42.8433 44.8029 42.5725 44.9119 42.371 45.1081L42.361 45.1181L39.161 48.3181C38.9611 48.5193 38.8489 48.7914 38.8489 49.0751C38.8489 49.3587 38.9611 49.6309 39.161 49.8321C39.2603 49.933 39.3785 50.0133 39.5089 50.0685C39.6393 50.1236 39.7793 50.1525 39.9209 50.1534C40.0625 50.1543 40.2029 50.1273 40.334 50.0739C40.4651 50.0205 40.5844 49.9417 40.685 49.8421ZM50.285 41.3091L51.656 39.9271V64.0131H53.789V39.9271L55.171 41.3091C55.587 41.7261 56.268 41.7261 56.685 41.3091C57.102 40.8921 57.102 40.2121 56.685 39.7951L53.485 36.5951C53.2861 36.3962 53.0168 36.2836 52.7356 36.2818C52.4543 36.2799 52.1835 36.3889 51.982 36.5851L51.972 36.5951L48.772 39.7951C48.356 40.2121 48.356 40.8921 48.772 41.3091C49.188 41.7261 49.868 41.7261 50.285 41.3091Z" fill="white"/>
</g>
<defs>
<clipPath id="clip0_64_242">
<rect width="32" height="32" fill="white" transform="translate(25 36.2803)"/>
</clipPath>
</defs>
</svg>
