<svg width="82" height="169" viewBox="0 0 82 169" fill="none" xmlns="http://www.w3.org/2000/svg">
<g clip-path="url(#clip0_77_7)">
<path d="M71.8862 88.0238C69.9647 84.2749 66.9371 81.2071 63.2137 79.2363L67.62 74.8301C68.14 74.3088 68.14 73.4588 67.62 72.9376C67.1 72.4163 66.2487 72.4163 65.7275 72.9376L60.6225 78.0551C58.2802 77.2099 55.8219 76.7302 53.3337 76.6326V69.9026C53.3337 69.5489 53.1932 69.2096 52.9431 68.9595C52.693 68.7094 52.3537 68.5688 52 68.5688C51.6463 68.5688 51.307 68.7094 51.0569 68.9595C50.8068 69.2096 50.6662 69.5489 50.6662 69.9026V76.6326C48.1813 76.7326 45.7268 77.2167 43.39 78.0676L38.2725 72.9501C37.7512 72.4288 36.9012 72.4288 36.38 72.9501C35.8587 73.4713 35.8587 74.3213 36.38 74.8426L40.7862 79.2363C37.0663 81.2059 34.0395 84.2685 32.1137 88.0113C32.0384 88.1836 31.9995 88.3696 31.9995 88.5576C31.9995 88.7456 32.0384 88.9316 32.1137 89.1038C32.33 89.5863 37.4337 100.57 52 100.57C66.5662 100.57 71.67 89.5863 71.8862 89.1163C71.9616 88.9441 72.0005 88.7581 72.0005 88.5701C72.0005 88.3821 71.9616 88.1961 71.8862 88.0238ZM52 96.5701C47.5812 96.5701 44 92.9888 44 88.5701C44 84.1513 47.5812 80.5701 52 80.5701C56.4187 80.5701 60 84.1513 60 88.5701C60 92.9888 56.4187 96.5701 52 96.5701Z" fill="#B18930"/>
</g>
<defs>
<clipPath id="clip0_77_7">
<rect width="40" height="40" fill="white" transform="translate(32 64.5703)"/>
</clipPath>
</defs>
</svg>
