<svg width="82" height="105" viewBox="0 0 82 105" fill="none" xmlns="http://www.w3.org/2000/svg">
<path d="M0 10C0 4.47716 4.47715 0 10 0H82V104.19H10C4.47715 104.19 0 99.7129 0 94.19V10Z" fill="#E2C96E" fill-opacity="0.9"/>
<g clip-path="url(#clip0_64_315)">
<path d="M52.533 53.1568H48.266C47.677 53.1568 47.199 53.6338 47.199 54.2238V68.0908H53.599V54.2238C53.599 53.6348 53.122 53.1568 52.532 53.1568H52.533ZM42.933 44.6228H38.666C38.077 44.6228 37.599 45.0998 37.599 45.6898V68.0898H43.999V45.6898C43.999 45.1008 43.523 44.6228 42.933 44.6228ZM33.333 36.0898H29.066C28.477 36.0898 27.999 36.5668 27.999 37.1568V68.0898H34.399V37.1568C34.399 36.5678 33.922 36.0898 33.332 36.0898H33.333Z" fill="white"/>
</g>
<defs>
<clipPath id="clip0_64_315">
<rect width="32" height="32" fill="white" transform="translate(25 36.0898)"/>
</clipPath>
</defs>
</svg>
