<svg width="36" height="37" viewBox="0 0 36 37" fill="none" xmlns="http://www.w3.org/2000/svg">
<rect y="0.5" width="36" height="36" rx="18" fill="url(#paint0_linear_3_219)"/>
<path d="M27.0003 13.0375C26.3269 13.336 25.6125 13.5319 24.881 13.6186C25.651 13.1575 26.2274 12.4325 26.5032 11.5785C25.7779 12.008 24.9848 12.311 24.1578 12.4744C23.8128 12.1057 23.3956 11.8119 22.9321 11.6113C22.4687 11.4108 21.969 11.3077 21.464 11.3086C20.9078 11.3084 20.3587 11.4339 19.8579 11.6757C19.357 11.9175 18.9173 12.2694 18.5715 12.7051C18.2258 13.1408 17.983 13.649 17.8614 14.1917C17.7397 14.7344 17.7422 15.2976 17.8689 15.8392C16.4015 15.7657 14.966 15.3844 13.6556 14.7201C12.3452 14.0558 11.1891 13.1233 10.2624 11.9832C9.93395 12.5461 9.7617 13.1864 9.76349 13.8381C9.76306 14.4456 9.91265 15.0439 10.199 15.5797C10.4853 16.1155 10.8995 16.5724 11.4048 16.9097C10.8187 16.8902 10.2456 16.7315 9.73291 16.4467V16.4929C9.73332 17.345 10.0282 18.1707 10.5677 18.8302C11.1071 19.4898 11.8579 19.9426 12.693 20.112C12.3758 20.1978 12.0488 20.2414 11.7203 20.2415C11.4822 20.2415 11.2513 20.2182 11.0252 20.1732C11.2608 20.9065 11.7198 21.5478 12.3378 22.0073C12.9559 22.4669 13.7022 22.7218 14.4722 22.7362C13.1647 23.7614 11.5503 24.3169 9.88883 24.3134C9.59078 24.3134 9.29753 24.2954 9.00848 24.263C10.6953 25.3489 12.6593 25.9254 14.6653 25.9236C21.4544 25.9236 25.1653 20.3003 25.1653 15.4237L25.1527 14.9457C25.8782 14.4271 26.5036 13.7812 26.9985 13.0393L27.0003 13.0375Z" fill="white"/>
<defs>
<linearGradient id="paint0_linear_3_219" x1="18" y1="0.5" x2="18" y2="36.5" gradientUnits="userSpaceOnUse">
<stop stop-color="#E2C96E"/>
<stop offset="0.96" stop-color="#B18930"/>
</linearGradient>
</defs>
</svg>
