<svg width="662" height="868" viewBox="0 0 662 868" fill="none" xmlns="http://www.w3.org/2000/svg">
<g clip-path="url(#clip0_64_448)">
<path opacity="0.05" d="M33.0156 845.372C11.1946 778.658 -0.0749135 705.958 4.88781e-06 632.387C4.88781e-06 353.206 159.234 126.885 355.659 126.885C486.074 126.885 600.093 226.649 662 375.414V845.372H33.0156Z" fill="#B18930"/>
<g opacity="0.05">
<path d="M322.464 85.0967C334.512 85.0967 344.278 71.2156 344.278 54.0925C344.278 36.9694 334.512 23.0884 322.464 23.0884C310.417 23.0884 300.65 36.9694 300.65 54.0925C300.65 71.2156 310.417 85.0967 322.464 85.0967Z" stroke="#B18930" stroke-width="9.48424"/>
<path d="M322.464 78.3568C331.893 78.3568 339.536 67.4934 339.536 54.0927C339.536 40.692 331.893 29.8286 322.464 29.8286C313.036 29.8286 305.393 40.692 305.393 54.0927C305.393 67.4934 313.036 78.3568 322.464 78.3568Z" stroke="#B18930" stroke-width="9.48424"/>
</g>
</g>
<defs>
<clipPath id="clip0_64_448">
<rect width="662" height="867" fill="white" transform="translate(0 0.72998)"/>
</clipPath>
</defs>
</svg>
