<svg width="82" height="105" viewBox="0 0 82 105" fill="none" xmlns="http://www.w3.org/2000/svg">
<path d="M0 10C0 4.47716 4.47715 0 10 0H82V104.19H10C4.47715 104.19 0 99.7129 0 94.19V10Z" fill="#E2C96E" fill-opacity="0.9"/>
<g clip-path="url(#clip0_3_190)">
<path d="M52.533 53.1571H48.266C47.677 53.1571 47.199 53.6341 47.199 54.2241V68.0911H53.599V54.2241C53.599 53.6351 53.122 53.1571 52.532 53.1571H52.533ZM42.933 44.6231H38.666C38.077 44.6231 37.599 45.1001 37.599 45.6901V68.0901H43.999V45.6901C43.999 45.1011 43.523 44.6231 42.933 44.6231ZM33.333 36.0901H29.066C28.477 36.0901 27.999 36.5671 27.999 37.1571V68.0901H34.399V37.1571C34.399 36.5681 33.922 36.0901 33.332 36.0901H33.333Z" fill="white"/>
</g>
<defs>
<clipPath id="clip0_3_190">
<rect width="32" height="32" fill="white" transform="translate(25 36.0901)"/>
</clipPath>
</defs>
</svg>
