<svg width="36" height="37" viewBox="0 0 36 37" fill="none" xmlns="http://www.w3.org/2000/svg">
<rect y="0.5" width="36" height="36" rx="18" fill="url(#paint0_linear_3_219)"/>
<path d="M27.0003 13.038C26.3269 13.3365 25.6125 13.5324 24.881 13.6191C25.651 13.158 26.2274 12.433 26.5032 11.5789C25.7779 12.0085 24.9848 12.3115 24.1578 12.4749C23.8128 12.1062 23.3956 11.8124 22.9321 11.6118C22.4687 11.4112 21.969 11.3082 21.464 11.3091C20.9078 11.3089 20.3587 11.4343 19.8579 11.6762C19.357 11.918 18.9173 12.2699 18.5715 12.7056C18.2258 13.1413 17.983 13.6495 17.8614 14.1922C17.7397 14.7349 17.7422 15.2981 17.8689 15.8397C16.4015 15.7662 14.966 15.3849 13.6556 14.7206C12.3452 14.0563 11.1891 13.1238 10.2624 11.9837C9.93395 12.5466 9.7617 13.1869 9.76349 13.8386C9.76306 14.4461 9.91265 15.0444 10.199 15.5802C10.4853 16.116 10.8995 16.5729 11.4048 16.9102C10.8187 16.8907 10.2456 16.732 9.73291 16.4472V16.4934C9.73332 17.3454 10.0282 18.1712 10.5677 18.8307C11.1071 19.4903 11.8579 19.9431 12.693 20.1125C12.3758 20.1983 12.0488 20.2418 11.7203 20.242C11.4822 20.242 11.2513 20.2186 11.0252 20.1737C11.2608 20.907 11.7198 21.5483 12.3378 22.0078C12.9559 22.4674 13.7022 22.7223 14.4722 22.7367C13.1647 23.7619 11.5503 24.3174 9.88883 24.3139C9.59078 24.3139 9.29753 24.2959 9.00848 24.2635C10.6953 25.3494 12.6593 25.9259 14.6653 25.9241C21.4544 25.9241 25.1653 20.3008 25.1653 15.4241L25.1527 14.9462C25.8782 14.4276 26.5036 13.7817 26.9985 13.0398L27.0003 13.038Z" fill="white"/>
<defs>
<linearGradient id="paint0_linear_3_219" x1="18" y1="0.5" x2="18" y2="36.5" gradientUnits="userSpaceOnUse">
<stop stop-color="#E2C96E"/>
<stop offset="0.96" stop-color="#B18930"/>
</linearGradient>
</defs>
</svg>
