<svg width="36" height="36" viewBox="0 0 36 36" fill="none" xmlns="http://www.w3.org/2000/svg">
<rect width="36" height="36" rx="18" fill="url(#paint0_linear_196_4)"/>
<path d="M18.0049 13.5074C16.8121 13.5074 15.6681 13.9813 14.8246 14.8248C13.9811 15.6682 13.5073 16.8122 13.5073 18.0051C13.5073 19.1979 13.9811 20.3419 14.8246 21.1854C15.6681 22.0289 16.8121 22.5027 18.0049 22.5027C19.1978 22.5027 20.3418 22.0289 21.1852 21.1854C22.0287 20.3419 22.5026 19.1979 22.5026 18.0051C22.5026 16.8122 22.0287 15.6682 21.1852 14.8248C20.3418 13.9813 19.1978 13.5074 18.0049 13.5074ZM18.0049 20.8164C17.2597 20.8153 16.5452 20.5188 16.0182 19.9918C15.4913 19.4648 15.1947 18.7503 15.1936 18.0051C15.1936 16.4543 16.4553 15.1937 18.0049 15.1937C19.5545 15.1937 20.8163 16.4543 20.8163 18.0051C20.8152 18.7503 20.5186 19.4648 19.9916 19.9918C19.4646 20.5188 18.7502 20.8153 18.0049 20.8164ZM22.8402 13.7695C22.76 13.772 22.6801 13.7584 22.6052 13.7295C22.5303 13.7005 22.462 13.6568 22.4044 13.601C22.3467 13.5451 22.3009 13.4782 22.2696 13.4043C22.2383 13.3304 22.2222 13.251 22.2222 13.1707C22.2222 13.0904 22.2383 13.011 22.2696 12.9371C22.3009 12.8632 22.3467 12.7963 22.4044 12.7404C22.462 12.6846 22.5303 12.6409 22.6052 12.6119C22.6801 12.583 22.76 12.5694 22.8402 12.5719C22.9957 12.5768 23.1432 12.6421 23.2515 12.7538C23.3598 12.8656 23.4203 13.0151 23.4203 13.1707C23.4203 13.3263 23.3598 13.4758 23.2515 13.5876C23.1432 13.6993 22.9957 13.7646 22.8402 13.7695ZM21.3782 9.00977H14.6317C13.1407 9.00992 11.7108 9.6023 10.6565 10.6566C9.60215 11.7109 9.00977 13.1408 9.00961 14.6318V21.3783C9.00977 22.8693 9.60215 24.2992 10.6565 25.3535C11.7108 26.4079 13.1407 27.0002 14.6317 27.0004H21.3782C22.8692 27.0002 24.2991 26.4079 25.3534 25.3535C26.4077 24.2992 27.0001 22.8693 27.0002 21.3783V14.6318C27.0001 13.1408 26.4077 11.7109 25.3534 10.6566C24.2991 9.6023 22.8692 9.00992 21.3782 9.00977ZM25.3139 21.3783C25.3128 22.4218 24.8978 23.4222 24.1599 24.1601C23.4221 24.8979 22.4217 25.313 21.3782 25.3141H14.6317C13.5882 25.313 12.5878 24.8979 11.8499 24.1601C11.1121 23.4222 10.697 22.4218 10.6959 21.3783V14.6318C10.697 13.5884 11.1121 12.5879 11.8499 11.8501C12.5878 11.1122 13.5882 10.6972 14.6317 10.6961H21.3782C22.4217 10.6972 23.4221 11.1122 24.1599 11.8501C24.8978 12.5879 25.3128 13.5884 25.3139 14.6318V21.3783Z" fill="white"/>
<defs>
<linearGradient id="paint0_linear_196_4" x1="18" y1="0" x2="18" y2="36" gradientUnits="userSpaceOnUse">
<stop stop-color="#E2C96E"/>
<stop offset="0.96" stop-color="#B18930"/>
</linearGradient>
</defs>
</svg>
