<svg width="20" height="20" viewBox="0 0 20 20" fill="none" xmlns="http://www.w3.org/2000/svg">
<path d="M9.99531 4.49766C8.80246 4.49766 7.65846 4.97152 6.81499 5.81499C5.97152 6.65846 5.49766 7.80246 5.49766 8.99531C5.49766 10.1882 5.97152 11.3322 6.81499 12.1756C7.65846 13.0191 8.80246 13.493 9.99531 13.493C11.1882 13.493 12.3322 13.0191 13.1756 12.1756C14.0191 11.3322 14.493 10.1882 14.493 8.99531C14.493 7.80246 14.0191 6.65846 13.1756 5.81499C12.3322 4.97152 11.1882 4.49766 9.99531 4.49766ZM9.99531 11.8066C9.25004 11.8055 8.53561 11.509 8.00863 10.982C7.48164 10.455 7.18509 9.74058 7.18398 8.99531C7.18398 7.44452 8.44572 6.18398 9.99531 6.18398C11.5449 6.18398 12.8066 7.44452 12.8066 8.99531C12.8055 9.74058 12.509 10.455 11.982 10.982C11.455 11.509 10.7406 11.8055 9.99531 11.8066ZM14.8306 4.75972C14.7504 4.76226 14.6704 4.74865 14.5956 4.7197C14.5207 4.69075 14.4524 4.64705 14.3948 4.5912C14.3371 4.53535 14.2913 4.46848 14.26 4.39456C14.2287 4.32065 14.2126 4.2412 14.2126 4.16093C14.2126 4.08066 14.2287 4.00121 14.26 3.9273C14.2913 3.85339 14.3371 3.78652 14.3948 3.73066C14.4524 3.67481 14.5207 3.63111 14.5956 3.60216C14.6704 3.57321 14.7504 3.5596 14.8306 3.56214C14.9861 3.56707 15.1336 3.63231 15.2419 3.74407C15.3502 3.85582 15.4107 4.00533 15.4107 4.16093C15.4107 4.31654 15.3502 4.46604 15.2419 4.5778C15.1336 4.68955 14.9861 4.7548 14.8306 4.75972ZM13.3686 0H6.62207C5.13105 0.000159016 3.70115 0.592534 2.64684 1.64684C1.59253 2.70115 1.00016 4.13105 1 5.62207V12.3686C1.00016 13.8596 1.59253 15.2895 2.64684 16.3438C3.70115 17.3981 5.13105 17.9905 6.62207 17.9906H13.3686C14.8596 17.9905 16.2895 17.3981 17.3438 16.3438C18.3981 15.2895 18.9905 13.8596 18.9906 12.3686V5.62207C18.9905 4.13105 18.3981 2.70115 17.3438 1.64684C16.2895 0.592534 14.8596 0.000159016 13.3686 0ZM17.3043 12.3686C17.3032 13.412 16.8882 14.4125 16.1503 15.1503C15.4125 15.8882 14.412 16.3032 13.3686 16.3043H6.62207C5.57859 16.3032 4.57816 15.8882 3.8403 15.1503C3.10245 14.4125 2.68743 13.412 2.68632 12.3686V5.62207C2.68743 4.57859 3.10245 3.57816 3.8403 2.8403C4.57816 2.10245 5.57859 1.68743 6.62207 1.68632H13.3686C14.412 1.68743 15.4125 2.10245 16.1503 2.8403C16.8882 3.57816 17.3032 4.57859 17.3043 5.62207V12.3686Z" fill="white"/>
</svg>
