<svg width="88" height="86" viewBox="0 0 88 86" fill="none" xmlns="http://www.w3.org/2000/svg">
<path fill-rule="evenodd" clip-rule="evenodd" d="M63.9315 83.6071C72.2108 86.1544 80.7378 84.1242 87.1344 79.2725L85.9257 77.6791C79.9866 82.1837 72.1202 84.034 64.5196 81.6955C60.986 80.6083 57.4733 78.6037 54.2177 75.4935C55.0003 74.5744 55.7518 73.5748 56.4683 72.4925C62.1498 63.9095 63.4981 56.6967 62.3274 51.1931C61.1563 45.687 57.4856 42.0269 53.4415 40.5857C49.4204 39.1527 44.8928 39.8967 42.2809 43.4108C39.6912 46.895 39.2677 52.7326 42.5333 60.8987C44.9971 67.0598 48.0513 71.8927 51.4612 75.5475C46.5586 80.5388 40.6102 82.3512 34.5965 81.7153C27.076 80.9202 19.3255 76.2767 13.3448 68.9011C1.72672 54.5733 -3.05113 30.1029 13.796 4.72794L14.8954 11.1685C14.9883 11.7129 15.505 12.0789 16.0494 11.986C16.5938 11.893 16.9598 11.3764 16.8669 10.832L15.3526 1.96033C15.2596 1.41591 14.743 1.04991 14.1986 1.14283L5.32684 2.65713C4.78243 2.75005 4.41642 3.26671 4.50935 3.81113C4.60227 4.35554 5.11894 4.72154 5.66335 4.62862L12.2025 3.51247C-5.21198 29.6509 -0.397257 55.1294 11.7913 70.1607C18.0203 77.8426 26.2183 82.8406 34.3862 83.7042C41.0223 84.4059 47.5544 82.3659 52.8671 76.9696C56.3159 80.257 60.0787 82.4217 63.9315 83.6071ZM52.81 74.0612C49.6329 70.6229 46.7476 66.0508 44.3904 60.1561C41.2302 52.2538 41.9078 47.2654 43.8861 44.6038C45.8421 41.9721 49.3493 41.2505 52.7701 42.4696C56.1679 43.6805 59.3462 46.7902 60.3712 51.6092C61.3967 56.4307 60.2883 63.0983 54.8005 71.3886C54.1636 72.3508 53.499 73.241 52.81 74.0612Z" fill="white"/>
</svg>
