<svg width="108" height="103" viewBox="0 0 108 103" fill="none" xmlns="http://www.w3.org/2000/svg">
<g clip-path="url(#clip0_2_170)">
<path fill-rule="evenodd" clip-rule="evenodd" d="M98.4416 0.458762C98.9062 0.160098 99.5249 0.294585 99.8236 0.759147C105.662 9.83996 105.822 23.677 97.4845 36.3031C94.6741 40.5592 90.9035 44.6741 86.0647 48.4319C91.3616 52.5971 95.586 57.2293 98.4679 62.7497C103.292 71.9904 104.27 83.5507 100.529 99.2347L106.242 95.8876C106.719 95.6084 107.331 95.7684 107.611 96.245C107.89 96.7215 107.73 97.3341 107.253 97.6133L99.4878 102.163C99.0113 102.442 98.3987 102.282 98.1195 101.806L93.57 94.04C93.2908 93.5634 93.4508 92.9508 93.9273 92.6716C94.4039 92.3925 95.0165 92.5525 95.2957 93.029L98.6057 98.6788C102.252 83.3313 101.213 72.3302 96.6949 63.6753C93.8987 58.3187 89.7379 53.7966 84.4064 49.6751C74.9644 56.5089 61.7883 62.0253 44.1842 64.8372C26.5926 67.6472 14.4031 65.0894 7.32363 60.0722C0.184259 55.0125 -1.68855 47.4643 1.50058 40.8574C4.6548 34.3228 12.6229 28.9784 24.6 27.786C36.5952 26.5919 52.7035 29.5372 72.4268 39.6575L72.4389 39.6638L72.4509 39.6703C76.8296 42.0704 80.8427 44.5339 84.4164 47.1757C89.3016 43.4521 93.0567 39.379 95.8155 35.2011C103.785 23.1326 103.488 10.157 98.1412 1.8407C97.8426 1.37614 97.9771 0.757426 98.4416 0.458762ZM82.7266 48.4173C79.3852 45.9915 75.6295 43.6938 71.5016 41.4307C52.0199 31.4366 36.3042 28.6308 24.7981 29.7762C13.2716 30.9237 6.06051 36.0115 3.30172 41.7268C0.577844 47.3698 2.05823 53.8893 8.48006 58.4404C14.9618 63.0339 26.5414 65.63 43.8688 62.8622C60.9123 60.1398 73.6171 54.8707 82.7266 48.4173Z" fill="white"/>
</g>
<defs>
<clipPath id="clip0_2_170">
<rect width="108" height="102" fill="white" transform="translate(0 0.299805)"/>
</clipPath>
</defs>
</svg>
